<?xml version="1.0" encoding="utf-8"?>
<!-- Generator: Adobe Illustrator 16.0.0, SVG Export Plug-In . SVG Version: 6.00 Build 0)  -->
<!DOCTYPE svg PUBLIC "-//W3C//DTD SVG 1.1//EN" "http://www.w3.org/Graphics/SVG/1.1/DTD/svg11.dtd">
<svg version="1.1" id="图层_2" xmlns="http://www.w3.org/2000/svg" xmlns:xlink="http://www.w3.org/1999/xlink" x="0px" y="0px"
	 width="300px" height="300px" viewBox="0 0 300 300" style="enable-background:new 0 0 300 300;" xml:space="preserve">
<style type="text/css">
<![CDATA[
	.st0{fill:#E6F6FC;}
	.st1{fill:url(#SVGID_1_);}
	.st2{fill:url(#SVGID_2_);}
	.st3{opacity:0.8;fill:#3D9ED1;}
	.st4{fill:#6BA0B2;}
	.st5{fill:#385D6D;}
	.st6{fill:#002533;}
	.st7{fill:#3D9ED1;}
]]>
</style>
<path class="st7" d="M61,89.4c0,0,3,7,16.5,7.7c13.5,0.6,28.3-0.2,26.5,13.7c0,0-1.1,10.4-11.9,24.8l17.4-4.5l12.9-35.5l-18.3-9.4"
	/>
<path class="st7" d="M162.8,84.3c0,0,0.4,6.5-9.2,9.9c0,0-18.3,6.2-2.9,14.2c0,0,10,4.2,14.6,5.1l-17,1.7l-10.4-6.4l-2.7-7.6
	l4.3-8.2"/>
<path class="st7" d="M127.3,94.1c0,0-3.8-13.5,6.6-21.9c0,0,15.9-10.9,20.6-19.9c0,0,10.7-18.4-4.9-27.8l-29.7,34.8l0.2,36.1
	L127.3,94.1z"/>
<linearGradient id="SVGID_1_" gradientUnits="userSpaceOnUse" x1="165.375" y1="10.8867" x2="114.9556" y2="257.0696" gradientTransform="matrix(0.9777 -0.2098 0.2098 0.9777 -14.8186 44.5456)">
	<stop  offset="0" style="stop-color:#73C6FF"/>
	<stop  offset="1" style="stop-color:#3D9ED1"/>
</linearGradient>
<path class="st1" d="M168.1,271.1c0,0-58.6,8.5-87.7-37.4c0,0-15.3-25.8-7.2-59.8c9.5-40.1,30.6-42.1,32.9-63
	c0,0,2.2-12.1-11.2-15.5c-9.2-2.3-39.3,4.6-35.7-15.7c2.9-16.1,31.6-13.2,45.5-3.4c0,0-8.6-33.3,12.3-48.5
	c20.9-15.2,34.5-1.8,34.5-1.8s20.2,14.7-15.2,39.3c-20.2,14.1-10.8,28.7-10.8,28.7s6.2-18.9,21.1-21.2c16.1-2.6,22.3,15.9,8.8,19
	c-13.5,3.1-24.8,15,5.4,20.8c22.9,4.4,62.5,13.6,76.3,55.2C249.7,205.9,239.6,262.6,168.1,271.1z"/>
<linearGradient id="SVGID_2_" gradientUnits="userSpaceOnUse" x1="166.4385" y1="15.1426" x2="118.1619" y2="250.8625" gradientTransform="matrix(0.9777 -0.2098 0.2098 0.9777 -14.8186 44.5456)">
	<stop  offset="0" style="stop-color:#91DDFF"/>
	<stop  offset="1" style="stop-color:#5CB5ED"/>
</linearGradient>
<path class="st2" d="M170.6,264.1c0,0-60.7,9.5-86.8-34.3c0,0-16.8-24.6-7.4-57.1c10.8-37.2,30.4-41.2,32.7-61.5
	c0,0,1.1-18.3-17.7-19.1c-13.3-0.6-25.5-0.4-25.6-12.8c-0.2-16,29.5-12,38.9-3.1c0,0-8.6-31.6,11.7-46.4c12.8-9.3,26.2-3.7,26.2-3.7
	s21.5,8.5-10.9,35.2c-18.4,15.2-6.2,32.7-6.2,32.7s5.6-18.9,20-21c18.7-2.8,20.6,13.7,7.5,16.8c-13.1,3-24.3,15,1.6,24
	c17.5,6,60.7,6.2,78.4,49.9C247.4,199.2,235.6,258,170.6,264.1z"/>
<g>
	<circle class="st3" cx="115.6" cy="226.1" r="17.5"/>
	<circle class="st6" cx="115.2" cy="223.7" r="15"/>
	<circle class="st5" cx="112.8" cy="223.1" r="9"/>
	<circle class="st0" cx="117.6" cy="218.1" r="6"/>
	<circle class="st4" cx="118.2" cy="230.8" r="4.3"/>
</g>
<g>
	<circle class="st3" cx="207.7" cy="220.2" r="17.5"/>
	<circle class="st6" cx="207.3" cy="217.8" r="15"/>
	<circle class="st5" cx="204.9" cy="217.2" r="9"/>
	<circle class="st0" cx="209.7" cy="212.2" r="6"/>
	<circle class="st4" cx="210.3" cy="225" r="4.3"/>
</g>
</svg>
